<svg width="485" height="75" viewBox="0 0 485 75" fill="none" xmlns="http://www.w3.org/2000/svg">
<path d="M42.8219 0.262772C56.8665 24.9267 70.9143 49.5873 84.959 74.2512C64.5456 69.7224 44.1356 65.1936 23.7222 60.6649C36.4499 60.5567 49.1807 60.4517 61.9084 60.3435C55.5462 40.3199 49.184 20.2897 42.8219 0.262772Z" fill="#7E62CC"/>
<path d="M42.8087 0.252846C49.1742 20.283 55.5429 40.3132 61.9083 60.3467C55.4675 49.4462 49.03 38.5457 42.5892 27.6451C36.2991 38.6539 30.0123 49.6593 23.7222 60.6681C44.1355 65.1968 64.5456 69.7256 84.9589 74.2544C56.6404 74.2544 28.3185 74.2544 0 74.2544C14.2707 49.5839 28.5413 24.92 42.8087 0.252846Z" fill="white"/>
<path d="M125.759 73.4144C120.253 73.4144 114.842 72.4632 109.503 70.5609C104.201 68.6222 99.3479 65.6888 94.945 61.7462L104.795 49.9328C108.567 53.0042 112.085 55.2913 115.35 56.7943C118.614 58.2973 122.197 59.0452 126.107 59.0452C129.073 59.0452 131.358 58.5079 132.954 57.4405C134.586 56.3369 135.406 54.754 135.406 52.6847V52.4814C135.406 51.3777 135.239 50.4629 134.905 49.7295C134.506 48.9962 133.854 48.3136 132.954 47.6747C131.953 47.072 130.553 46.4549 128.754 45.8232C127.217 45.2205 125.2 44.6034 122.697 43.9717C122.364 43.87 122.03 43.7684 121.696 43.674C118.099 42.839 114.813 41.8588 111.846 40.7188C108.843 39.6515 106.311 38.2792 104.244 36.6092C102.177 34.9755 100.574 32.986 99.4423 30.648C98.3397 28.2447 97.7884 25.3113 97.7884 21.8406V21.6373C97.7884 18.4643 98.3759 15.56 99.5365 12.9243C100.77 10.2523 102.525 7.96514 104.788 6.0628C107.059 4.12416 109.771 2.60664 112.941 1.50299C116.075 0.500998 119.528 0 123.3 0C128.631 0 133.52 0.784169 137.952 2.35251C142.456 3.95716 146.591 6.27337 150.356 9.3084L141.753 21.7244C138.017 19.2194 134.702 17.3679 131.801 16.1626C128.863 14.9283 125.962 14.3111 123.096 14.3111C120.333 14.3111 118.28 14.8629 116.945 15.9666C115.509 17.0339 114.791 18.4353 114.791 20.1706V20.3667C114.791 21.601 115.038 22.603 115.538 23.3727C115.937 24.1713 116.655 24.8902 117.692 25.5291C118.73 26.1318 120.224 26.7489 122.197 27.3806C123.503 27.78 125.033 28.2156 126.803 28.6803C127.666 28.9127 128.587 29.1668 129.552 29.4282C133.223 30.3939 136.472 31.483 139.308 32.6811C142.181 33.9154 144.589 35.353 146.562 36.9867C148.6 38.7221 150.095 40.7043 151.067 42.9479C152.031 45.1842 152.517 47.8562 152.517 50.9566V51.1526C152.517 54.6233 151.872 57.731 150.566 60.4683C149.333 63.2056 147.534 65.5291 145.162 67.4314C142.761 69.3701 139.925 70.8368 136.661 71.8388C133.295 72.8989 129.661 73.4144 125.759 73.4144Z" fill="white"/>
<path d="M194.299 73.5161H176.89V1.01664H207C224.742 1.01664 234.194 9.39565 235.362 26.1537C235.362 34.6634 232.46 41.0892 226.657 45.4312C220.891 49.8022 213.651 51.9877 204.947 51.9877L195.242 37.3136H205.999C213.368 37.3136 217.285 33.7558 217.75 26.6474C217.75 19.6697 213.717 16.0829 205.651 15.8796H194.291V73.5161H194.299Z" fill="white"/>
<path d="M322.855 73.821H304.75L283.845 22.3489L268.786 59.401H284.643V73.821H245.226L276.04 1.11823H291.947L322.855 73.821Z" fill="white"/>
<path d="M375.089 73.4145C364.549 73.4145 355.845 69.893 348.983 62.8499C342.15 55.8723 338.726 47.3625 338.726 37.3135C338.726 27.3662 342.143 18.8565 348.983 11.7772C355.75 4.60345 364.658 1.00933 375.691 1.00933C382.357 1.00933 387.928 2.04763 392.396 4.11697C396.799 6.08466 400.578 8.70582 403.755 11.9805L393.346 24.0988C388.08 18.4934 382.161 15.6835 375.589 15.6835C370.055 15.6835 365.449 17.7674 361.786 21.9423C358.079 26.0157 356.229 31.0765 356.229 37.1175C356.229 43.1585 358.079 48.2847 361.786 52.4887C365.354 56.6637 369.953 58.7476 375.589 58.7476C383.09 58.7476 389.139 55.8432 393.745 50.0345L404.299 60.7007C400.767 64.6724 396.726 67.7946 392.193 70.0599C387.667 72.2963 381.958 73.4145 375.089 73.4145Z" fill="white"/>
<path d="M428.671 1.11823H484.394V15.7924H428.671V1.11823ZM444.332 58.7475H484.401V73.4217H428.679V29.9583H463.496V44.6252H444.339V58.7475H444.332Z" fill="white"/>
</svg>
